<mxfile host="drawio-plugin" modified="2024-04-15T07:44:06.072Z" agent="5.0 (Windows NT 10.0; Win64; x64) AppleWebKit/537.36 (KHTML, like Gecko) Chrome/122.0.0.0 Safari/537.36" etag="kRxntQXutmJUN5y8lDPr" version="20.5.3" type="embed"><diagram name="Seite-1" id="VH71Olbo8Z-LvbqJ2Q5k"><mxGraphModel dx="519" dy="391" grid="1" gridSize="10" guides="1" tooltips="1" connect="1" arrows="1" fold="1" page="1" pageScale="1" pageWidth="827" pageHeight="1169" math="0" shadow="0"><root><mxCell id="0"/><mxCell id="1" parent="0"/><mxCell id="uonYmJvlZDU0ERn19EDY-47" value="" style="ellipse;whiteSpace=wrap;html=1;aspect=fixed;" parent="1" vertex="1"><mxGeometry x="10" y="160" width="34" height="34" as="geometry"/></mxCell><mxCell id="uonYmJvlZDU0ERn19EDY-48" value="Nutzer Geht auf Seite/ schaut Programm an" style="rounded=1;whiteSpace=wrap;html=1;" parent="1" vertex="1"><mxGeometry x="80" y="147" width="120" height="60" as="geometry"/></mxCell><mxCell id="uonYmJvlZDU0ERn19EDY-51" value="" style="edgeStyle=segmentEdgeStyle;endArrow=classic;html=1;curved=0;rounded=0;endSize=8;startSize=8;exitX=1;exitY=0.5;exitDx=0;exitDy=0;entryX=0;entryY=0.5;entryDx=0;entryDy=0;" parent="1" source="uonYmJvlZDU0ERn19EDY-47" target="uonYmJvlZDU0ERn19EDY-48" edge="1"><mxGeometry width="50" height="50" relative="1" as="geometry"><mxPoint x="50" y="160" as="sourcePoint"/><mxPoint x="410" y="120" as="targetPoint"/></mxGeometry></mxCell><mxCell id="uonYmJvlZDU0ERn19EDY-52" value="" style="line;strokeWidth=2;direction=south;html=1;" parent="1" vertex="1"><mxGeometry x="230" y="97" width="10" height="160" as="geometry"/></mxCell><mxCell id="uonYmJvlZDU0ERn19EDY-53" value="" style="endArrow=none;html=1;rounded=0;exitX=1;exitY=0.5;exitDx=0;exitDy=0;entryX=0.491;entryY=0.505;entryDx=0;entryDy=0;entryPerimeter=0;" parent="1" source="uonYmJvlZDU0ERn19EDY-48" target="uonYmJvlZDU0ERn19EDY-52" edge="1"><mxGeometry width="50" height="50" relative="1" as="geometry"><mxPoint x="120" y="80" as="sourcePoint"/><mxPoint x="350" y="177" as="targetPoint"/></mxGeometry></mxCell><mxCell id="uonYmJvlZDU0ERn19EDY-61" value="" style="ellipse;whiteSpace=wrap;html=1;aspect=fixed;" parent="1" vertex="1"><mxGeometry x="100" y="17" width="53" height="53" as="geometry"/></mxCell><mxCell id="uonYmJvlZDU0ERn19EDY-62" value="" style="edgeStyle=segmentEdgeStyle;endArrow=classic;html=1;curved=0;rounded=0;endSize=8;startSize=8;entryX=1;entryY=0.5;entryDx=0;entryDy=0;" parent="1" target="uonYmJvlZDU0ERn19EDY-61" edge="1"><mxGeometry width="50" height="50" relative="1" as="geometry"><mxPoint x="380" y="100" as="sourcePoint"/><mxPoint x="260" y="50" as="targetPoint"/><Array as="points"><mxPoint x="320" y="44"/><mxPoint x="315" y="44"/></Array></mxGeometry></mxCell><mxCell id="uonYmJvlZDU0ERn19EDY-65" value="Karte kaufen" style="rounded=1;whiteSpace=wrap;html=1;" parent="1" vertex="1"><mxGeometry x="700" y="147" width="120" height="60" as="geometry"/></mxCell><mxCell id="uonYmJvlZDU0ERn19EDY-66" value="" style="edgeStyle=elbowEdgeStyle;elbow=horizontal;endArrow=classic;html=1;curved=0;rounded=0;endSize=8;startSize=8;exitX=1;exitY=0.5;exitDx=0;exitDy=0;entryX=0;entryY=0.5;entryDx=0;entryDy=0;" parent="1" source="uonYmJvlZDU0ERn19EDY-109" target="uonYmJvlZDU0ERn19EDY-65" edge="1"><mxGeometry width="50" height="50" relative="1" as="geometry"><mxPoint x="360" y="190" as="sourcePoint"/><mxPoint x="410" y="140" as="targetPoint"/></mxGeometry></mxCell><mxCell id="uonYmJvlZDU0ERn19EDY-67" value="Login" style="rounded=1;whiteSpace=wrap;html=1;arcSize=5;" parent="1" vertex="1"><mxGeometry x="380" y="220" width="120" height="60" as="geometry"/></mxCell><mxCell id="uonYmJvlZDU0ERn19EDY-81" value="" style="edgeStyle=segmentEdgeStyle;endArrow=classic;html=1;curved=0;rounded=0;endSize=8;startSize=8;entryX=0;entryY=0.5;entryDx=0;entryDy=0;exitX=0.5;exitY=0;exitDx=0;exitDy=0;" parent="1" source="uonYmJvlZDU0ERn19EDY-67" target="uonYmJvlZDU0ERn19EDY-65" edge="1"><mxGeometry width="50" height="50" relative="1" as="geometry"><mxPoint x="540" y="257" as="sourcePoint"/><mxPoint x="510" y="114.47000000000001" as="targetPoint"/><Array as="points"><mxPoint x="380" y="177"/></Array></mxGeometry></mxCell><mxCell id="uonYmJvlZDU0ERn19EDY-82" value="Stornierung oder Tausch der Karte" style="rounded=1;whiteSpace=wrap;html=1;" parent="1" vertex="1"><mxGeometry x="330" y="420" width="120" height="60" as="geometry"/></mxCell><mxCell id="uonYmJvlZDU0ERn19EDY-85" value="" style="line;strokeWidth=2;direction=south;html=1;" parent="1" vertex="1"><mxGeometry x="240" y="330" width="10" height="160" as="geometry"/></mxCell><mxCell id="uonYmJvlZDU0ERn19EDY-92" value="" style="edgeStyle=elbowEdgeStyle;elbow=horizontal;endArrow=classic;html=1;curved=0;rounded=0;endSize=8;startSize=8;entryX=0.75;entryY=0.5;entryDx=0;entryDy=0;entryPerimeter=0;" parent="1" target="uonYmJvlZDU0ERn19EDY-85" edge="1"><mxGeometry width="50" height="50" relative="1" as="geometry"><mxPoint x="350" y="320" as="sourcePoint"/><mxPoint x="550" y="280" as="targetPoint"/><Array as="points"><mxPoint x="180" y="340"/></Array></mxGeometry></mxCell><mxCell id="uonYmJvlZDU0ERn19EDY-93" value="" style="endArrow=none;html=1;rounded=0;entryX=0.5;entryY=1;entryDx=0;entryDy=0;" parent="1" target="uonYmJvlZDU0ERn19EDY-65" edge="1"><mxGeometry width="50" height="50" relative="1" as="geometry"><mxPoint x="350" y="320" as="sourcePoint"/><mxPoint x="480" y="240" as="targetPoint"/><Array as="points"><mxPoint x="760" y="320"/></Array></mxGeometry></mxCell><mxCell id="uonYmJvlZDU0ERn19EDY-94" value="Schauen des Films" style="rounded=1;whiteSpace=wrap;html=1;" parent="1" vertex="1"><mxGeometry x="430" y="350" width="120" height="60" as="geometry"/></mxCell><mxCell id="uonYmJvlZDU0ERn19EDY-96" value="" style="edgeStyle=elbowEdgeStyle;elbow=horizontal;endArrow=classic;html=1;curved=0;rounded=0;endSize=8;startSize=8;exitX=0.654;exitY=0.79;exitDx=0;exitDy=0;exitPerimeter=0;entryX=0;entryY=0.25;entryDx=0;entryDy=0;" parent="1" source="uonYmJvlZDU0ERn19EDY-85" target="uonYmJvlZDU0ERn19EDY-82" edge="1"><mxGeometry width="50" height="50" relative="1" as="geometry"><mxPoint x="270" y="480" as="sourcePoint"/><mxPoint x="320" y="430" as="targetPoint"/></mxGeometry></mxCell><mxCell id="uonYmJvlZDU0ERn19EDY-98" value="Warten auf Termin" style="text;html=1;align=center;verticalAlign=middle;whiteSpace=wrap;rounded=0;" parent="1" vertex="1"><mxGeometry x="153" y="365" width="60" height="30" as="geometry"/></mxCell><mxCell id="uonYmJvlZDU0ERn19EDY-99" value="" style="ellipse;whiteSpace=wrap;html=1;aspect=fixed;" parent="1" vertex="1"><mxGeometry x="620" y="355" width="50" height="50" as="geometry"/></mxCell><mxCell id="uonYmJvlZDU0ERn19EDY-100" value="" style="edgeStyle=segmentEdgeStyle;endArrow=classic;html=1;curved=0;rounded=0;endSize=8;startSize=8;exitX=1;exitY=0.5;exitDx=0;exitDy=0;entryX=0;entryY=0.5;entryDx=0;entryDy=0;" parent="1" source="uonYmJvlZDU0ERn19EDY-94" target="uonYmJvlZDU0ERn19EDY-99" edge="1"><mxGeometry width="50" height="50" relative="1" as="geometry"><mxPoint x="470" y="390" as="sourcePoint"/><mxPoint x="520" y="340" as="targetPoint"/></mxGeometry></mxCell><mxCell id="uonYmJvlZDU0ERn19EDY-101" value="" style="edgeStyle=elbowEdgeStyle;elbow=horizontal;endArrow=classic;html=1;curved=0;rounded=0;endSize=8;startSize=8;exitX=1;exitY=0.5;exitDx=0;exitDy=0;entryX=0;entryY=0.5;entryDx=0;entryDy=0;" parent="1" source="uonYmJvlZDU0ERn19EDY-82" target="uonYmJvlZDU0ERn19EDY-111" edge="1"><mxGeometry width="50" height="50" relative="1" as="geometry"><mxPoint x="480" y="480" as="sourcePoint"/><mxPoint x="590" y="460" as="targetPoint"/><Array as="points"><mxPoint x="585" y="450"/></Array></mxGeometry></mxCell><mxCell id="uonYmJvlZDU0ERn19EDY-102" value="Dashbpoard" style="rounded=1;whiteSpace=wrap;html=1;" parent="1" vertex="1"><mxGeometry x="580" y="220" width="120" height="60" as="geometry"/></mxCell><mxCell id="uonYmJvlZDU0ERn19EDY-104" value="" style="endArrow=classic;html=1;rounded=0;entryX=0;entryY=0.5;entryDx=0;entryDy=0;exitX=1;exitY=0.5;exitDx=0;exitDy=0;" parent="1" source="uonYmJvlZDU0ERn19EDY-67" target="uonYmJvlZDU0ERn19EDY-102" edge="1"><mxGeometry width="50" height="50" relative="1" as="geometry"><mxPoint x="100" y="340" as="sourcePoint"/><mxPoint x="470" y="310" as="targetPoint"/></mxGeometry></mxCell><mxCell id="uonYmJvlZDU0ERn19EDY-105" value="" style="endArrow=classic;html=1;rounded=0;exitX=0.5;exitY=0;exitDx=0;exitDy=0;entryX=0;entryY=0.5;entryDx=0;entryDy=0;" parent="1" source="uonYmJvlZDU0ERn19EDY-102" target="uonYmJvlZDU0ERn19EDY-65" edge="1"><mxGeometry width="50" height="50" relative="1" as="geometry"><mxPoint x="570" y="230" as="sourcePoint"/><mxPoint x="620" y="180" as="targetPoint"/><Array as="points"><mxPoint x="640" y="177"/></Array></mxGeometry></mxCell><mxCell id="uonYmJvlZDU0ERn19EDY-107" value="&lt;div&gt;Sicherheitsfrage ob vorhanden&lt;/div&gt;" style="text;html=1;align=center;verticalAlign=middle;whiteSpace=wrap;rounded=0;" parent="1" vertex="1"><mxGeometry x="550" y="130" width="60" height="30" as="geometry"/></mxCell><mxCell id="uonYmJvlZDU0ERn19EDY-108" value="" style="edgeStyle=elbowEdgeStyle;elbow=horizontal;endArrow=classic;html=1;curved=0;rounded=0;endSize=8;startSize=8;exitX=0.503;exitY=0.314;exitDx=0;exitDy=0;exitPerimeter=0;entryX=0;entryY=0.5;entryDx=0;entryDy=0;" parent="1" source="uonYmJvlZDU0ERn19EDY-52" target="uonYmJvlZDU0ERn19EDY-109" edge="1"><mxGeometry width="50" height="50" relative="1" as="geometry"><mxPoint x="237" y="177" as="sourcePoint"/><mxPoint x="700" y="177" as="targetPoint"/></mxGeometry></mxCell><mxCell id="uonYmJvlZDU0ERn19EDY-109" value="Für &quot;Gäste&quot;" style="text;html=1;align=center;verticalAlign=middle;whiteSpace=wrap;rounded=0;" parent="1" vertex="1"><mxGeometry x="290" y="162" width="60" height="30" as="geometry"/></mxCell><mxCell id="uonYmJvlZDU0ERn19EDY-110" value="" style="endArrow=classic;startArrow=classic;html=1;rounded=0;entryX=0;entryY=0.25;entryDx=0;entryDy=0;" parent="1" target="uonYmJvlZDU0ERn19EDY-65" edge="1"><mxGeometry width="50" height="50" relative="1" as="geometry"><mxPoint x="440" y="220" as="sourcePoint"/><mxPoint x="700" y="120" as="targetPoint"/><Array as="points"><mxPoint x="440" y="160"/></Array></mxGeometry></mxCell><mxCell id="uonYmJvlZDU0ERn19EDY-111" value="" style="ellipse;whiteSpace=wrap;html=1;aspect=fixed;" parent="1" vertex="1"><mxGeometry x="620" y="425" width="50" height="50" as="geometry"/></mxCell><mxCell id="uonYmJvlZDU0ERn19EDY-112" value="" style="endArrow=none;html=1;rounded=0;exitX=0.156;exitY=0.3;exitDx=0;exitDy=0;exitPerimeter=0;" parent="1" source="uonYmJvlZDU0ERn19EDY-52" edge="1"><mxGeometry width="50" height="50" relative="1" as="geometry"><mxPoint x="250" y="150" as="sourcePoint"/><mxPoint x="380" y="100" as="targetPoint"/><Array as="points"><mxPoint x="380" y="120"/></Array></mxGeometry></mxCell><mxCell id="uonYmJvlZDU0ERn19EDY-113" value="Falls kein Film gefunden" style="text;html=1;align=center;verticalAlign=middle;whiteSpace=wrap;rounded=0;" parent="1" vertex="1"><mxGeometry x="350" y="70" width="60" height="30" as="geometry"/></mxCell><mxCell id="uonYmJvlZDU0ERn19EDY-120" value="" style="endArrow=classic;html=1;rounded=0;exitX=0.95;exitY=0.5;exitDx=0;exitDy=0;exitPerimeter=0;entryX=0;entryY=0.5;entryDx=0;entryDy=0;" parent="1" source="uonYmJvlZDU0ERn19EDY-52" target="uonYmJvlZDU0ERn19EDY-67" edge="1"><mxGeometry relative="1" as="geometry"><mxPoint x="260" y="250" as="sourcePoint"/><mxPoint x="360" y="250" as="targetPoint"/></mxGeometry></mxCell><mxCell id="uonYmJvlZDU0ERn19EDY-121" value="Label" style="edgeLabel;resizable=0;html=1;;align=center;verticalAlign=middle;" parent="uonYmJvlZDU0ERn19EDY-120" connectable="0" vertex="1"><mxGeometry relative="1" as="geometry"/></mxCell><mxCell id="uonYmJvlZDU0ERn19EDY-122" value="Mit Kundenkonto" style="edgeLabel;html=1;align=center;verticalAlign=middle;resizable=0;points=[];" parent="uonYmJvlZDU0ERn19EDY-120" vertex="1" connectable="0"><mxGeometry x="0.0344" y="1" relative="1" as="geometry"><mxPoint as="offset"/></mxGeometry></mxCell><mxCell id="uonYmJvlZDU0ERn19EDY-123" value="Kauf von Snacks" style="rounded=1;whiteSpace=wrap;html=1;" parent="1" vertex="1"><mxGeometry x="280" y="350" width="120" height="60" as="geometry"/></mxCell><mxCell id="uonYmJvlZDU0ERn19EDY-125" value="" style="edgeStyle=elbowEdgeStyle;elbow=horizontal;endArrow=classic;html=1;curved=0;rounded=0;endSize=8;startSize=8;entryX=0;entryY=0.5;entryDx=0;entryDy=0;exitX=1;exitY=0.5;exitDx=0;exitDy=0;" parent="1" source="uonYmJvlZDU0ERn19EDY-123" target="uonYmJvlZDU0ERn19EDY-94" edge="1"><mxGeometry width="50" height="50" relative="1" as="geometry"><mxPoint x="400" y="380" as="sourcePoint"/><mxPoint x="450" y="330" as="targetPoint"/></mxGeometry></mxCell><mxCell id="2" value="" style="ellipse;whiteSpace=wrap;html=1;aspect=fixed;" parent="1" vertex="1"><mxGeometry x="460" y="17" width="33" height="33" as="geometry"/></mxCell><mxCell id="6" value="" style="endArrow=classic;html=1;rounded=0;exitX=0.809;exitY=0.011;exitDx=0;exitDy=0;entryX=0.5;entryY=1;entryDx=0;entryDy=0;exitPerimeter=0;" parent="1" source="uonYmJvlZDU0ERn19EDY-67" target="2" edge="1"><mxGeometry relative="1" as="geometry"><mxPoint x="450" y="300" as="sourcePoint"/><mxPoint x="550" y="300" as="targetPoint"/><Array as="points"/></mxGeometry></mxCell><mxCell id="7" value="Logoutl" style="edgeLabel;resizable=0;html=1;align=center;verticalAlign=middle;" parent="6" connectable="0" vertex="1"><mxGeometry relative="1" as="geometry"/></mxCell><mxCell id="8" value="" style="endArrow=classic;html=1;rounded=0;entryX=0;entryY=0.5;entryDx=0;entryDy=0;exitX=0.319;exitY=0.4;exitDx=0;exitDy=0;exitPerimeter=0;" edge="1" parent="1" source="uonYmJvlZDU0ERn19EDY-85" target="uonYmJvlZDU0ERn19EDY-123"><mxGeometry width="50" height="50" relative="1" as="geometry"><mxPoint x="120" y="430" as="sourcePoint"/><mxPoint x="140" y="440" as="targetPoint"/></mxGeometry></mxCell></root></mxGraphModel></diagram></mxfile>